<?xml version="1.0" encoding="UTF-8" standalone="no"?>
<!-- Created with Inkscape (http://www.inkscape.org/) -->

<svg
   xmlns:dc="http://purl.org/dc/elements/1.1/"
   xmlns:cc="http://creativecommons.org/ns#"
   xmlns:rdf="http://www.w3.org/1999/02/22-rdf-syntax-ns#"
   xmlns:svg="http://www.w3.org/2000/svg"
   xmlns="http://www.w3.org/2000/svg"
   xmlns:sodipodi="http://sodipodi.sourceforge.net/DTD/sodipodi-0.dtd"
   xmlns:inkscape="http://www.inkscape.org/namespaces/inkscape"
   width="1448.125"
   height="592.32367"
   id="svg2891"
   version="1.1"
   inkscape:version="0.47 r22583"
   sodipodi:docname="people.svg">
  <defs
     id="defs2893">
    <inkscape:perspective
       sodipodi:type="inkscape:persp3d"
       inkscape:vp_x="0 : 526.18109 : 1"
       inkscape:vp_y="0 : 1000 : 0"
       inkscape:vp_z="744.09448 : 526.18109 : 1"
       inkscape:persp3d-origin="372.04724 : 350.78739 : 1"
       id="perspective2899" />
    <inkscape:perspective
       id="perspective2934"
       inkscape:persp3d-origin="0.5 : 0.33333333 : 1"
       inkscape:vp_z="1 : 0.5 : 1"
       inkscape:vp_y="0 : 1000 : 0"
       inkscape:vp_x="0 : 0.5 : 1"
       sodipodi:type="inkscape:persp3d" />
  </defs>
  <sodipodi:namedview
     id="base"
     pagecolor="#ffffff"
     bordercolor="#666666"
     borderopacity="1.0"
     inkscape:pageopacity="0.0"
     inkscape:pageshadow="2"
     inkscape:zoom="0.56770131"
     inkscape:cx="730.34073"
     inkscape:cy="314.49366"
     inkscape:document-units="px"
     inkscape:current-layer="layer1"
     showgrid="false"
     inkscape:window-width="1280"
     inkscape:window-height="973"
     inkscape:window-x="0"
     inkscape:window-y="24"
     inkscape:window-maximized="1" />
  <metadata
     id="metadata2896">
    <rdf:RDF>
      <cc:Work
         rdf:about="">
        <dc:format>image/svg+xml</dc:format>
        <dc:type
           rdf:resource="http://purl.org/dc/dcmitype/StillImage" />
        <dc:title></dc:title>
      </cc:Work>
    </rdf:RDF>
  </metadata>
  <g
     inkscape:label="Layer 1"
     inkscape:groupmode="layer"
     id="layer1"
     transform="translate(-96.127228,-135.21932)">
    <g
       id="g3229"
       transform="translate(11.92393,0)"
       style="fill:#e6e6e6">
      <g
         id="g3231"
         style="fill:#e6e6e6">
        <path
           d="m 354.28571,212.36218 c 0,42.60483 -34.53803,77.14286 -77.14286,77.14286 -42.60482,0 -77.14286,-34.53803 -77.14286,-77.14286 0,-42.60482 34.53804,-77.14286 77.14286,-77.14286 42.60483,0 77.14286,34.53804 77.14286,77.14286 z"
           sodipodi:ry="77.14286"
           sodipodi:rx="77.14286"
           sodipodi:cy="212.36218"
           sodipodi:cx="277.14285"
           id="path3233"
           style="color:#000000;fill:#e6e6e6;fill-opacity:1;fill-rule:nonzero;stroke:none;stroke-width:0.75000000000000000;marker:none;visibility:visible;display:inline;overflow:visible;enable-background:accumulate"
           sodipodi:type="arc" />
        <path
           id="path3235"
           d="m 277.12723,294.46229 c -93.9975,0 -171.33183,71.22361 -181.000002,162.65625 l 34.812502,0 c 9.48663,-72.29381 71.30145,-128.09375 146.1875,-128.09375 74.88605,0 136.72786,55.79994 146.21875,128.09375 l 34.8125,0 C 448.48676,365.6859 371.12473,294.46229 277.12723,294.46229 z"
           style="color:#000000;fill:#e6e6e6;fill-opacity:1;fill-rule:nonzero;stroke:none;stroke-width:1.76986504000000000;marker:none;visibility:visible;display:inline;overflow:visible;enable-background:accumulate" />
        <path
           id="path3237"
           d="m 277.14285,292.28125 c -59.20404,0 -107.1875,85.74932 -107.1875,191.5 0,3.96126 0.0548,7.87964 0.1875,11.78125 l 214,0 c 0.13275,-3.90161 0.1875,-7.81999 0.1875,-11.78125 0,-105.75068 -47.98346,-191.5 -107.1875,-191.5 z"
           style="color:#000000;fill:#e6e6e6;fill-opacity:1;fill-rule:nonzero;stroke:none;stroke-width:0.89422606999999998;marker:none;visibility:visible;display:inline;overflow:visible;enable-background:accumulate" />
        <g
           style="fill:#e6e6e6;fill-opacity:1;stroke:none"
           transform="translate(-9.3252468,0)"
           id="g3239">
          <rect
             style="color:#000000;fill:#e6e6e6;fill-opacity:1;fill-rule:nonzero;stroke:none;stroke-width:0.56463998999999998;marker:none;visibility:visible;display:inline;overflow:visible;enable-background:accumulate"
             id="rect3241"
             width="38.629131"
             height="242.00908"
             x="226.84958"
             y="485.53394" />
          <rect
             y="485.53394"
             x="307.45749"
             height="242.00908"
             width="38.629131"
             id="rect3243"
             style="color:#000000;fill:#e6e6e6;fill-opacity:1;fill-rule:nonzero;stroke:none;stroke-width:0.56463998999999998;marker:none;visibility:visible;display:inline;overflow:visible;enable-background:accumulate" />
        </g>
      </g>
      <g
         id="g3245"
         style="fill:#e6e6e6">
        <g
           style="fill:#e6e6e6;fill-opacity:1"
           transform="translate(362.03125,0)"
           id="g3247">
          <path
             d="m 354.28571,212.36218 c 0,42.60483 -34.53803,77.14286 -77.14286,77.14286 -42.60482,0 -77.14286,-34.53803 -77.14286,-77.14286 0,-42.60482 34.53804,-77.14286 77.14286,-77.14286 42.60483,0 77.14286,34.53804 77.14286,77.14286 z"
             sodipodi:ry="77.14286"
             sodipodi:rx="77.14286"
             sodipodi:cy="212.36218"
             sodipodi:cx="277.14285"
             id="path3249"
             style="color:#000000;fill:#e6e6e6;fill-opacity:1;fill-rule:nonzero;stroke:none;stroke-width:0.75000000000000000;marker:none;visibility:visible;display:inline;overflow:visible;enable-background:accumulate"
             sodipodi:type="arc" />
          <path
             id="path3251"
             d="m 277.12723,294.46229 c -93.9975,0 -171.33183,71.22361 -181.000002,162.65625 l 34.812502,0 c 9.48663,-72.29381 71.30145,-128.09375 146.1875,-128.09375 74.88605,0 136.72786,55.79994 146.21875,128.09375 l 34.8125,0 C 448.48676,365.6859 371.12473,294.46229 277.12723,294.46229 z"
             style="color:#000000;fill:#e6e6e6;fill-opacity:1;fill-rule:nonzero;stroke:none;stroke-width:1.76986504000000000;marker:none;visibility:visible;display:inline;overflow:visible;enable-background:accumulate" />
          <path
             id="path3253"
             d="m 277.14285,292.28125 c -59.20404,0 -107.1875,85.74932 -107.1875,191.5 0,3.96126 0.0548,7.87964 0.1875,11.78125 l 214,0 c 0.13275,-3.90161 0.1875,-7.81999 0.1875,-11.78125 0,-105.75068 -47.98346,-191.5 -107.1875,-191.5 z"
             style="color:#000000;fill:#e6e6e6;fill-opacity:1;fill-rule:nonzero;stroke:none;stroke-width:0.89422606999999998;marker:none;visibility:visible;display:inline;overflow:visible;enable-background:accumulate" />
          <g
             style="fill:#e6e6e6;fill-opacity:1;stroke:none"
             transform="translate(-9.3252468,0)"
             id="g3255">
            <rect
               style="color:#000000;fill:#e6e6e6;fill-opacity:1;fill-rule:nonzero;stroke:none;stroke-width:0.56463998999999998;marker:none;visibility:visible;display:inline;overflow:visible;enable-background:accumulate"
               id="rect3257"
               width="38.629131"
               height="242.00908"
               x="226.84958"
               y="485.53394" />
            <rect
               y="485.53394"
               x="307.45749"
               height="242.00908"
               width="38.629131"
               id="rect3259"
               style="color:#000000;fill:#e6e6e6;fill-opacity:1;fill-rule:nonzero;stroke:none;stroke-width:0.56463998999999998;marker:none;visibility:visible;display:inline;overflow:visible;enable-background:accumulate" />
          </g>
        </g>
        <g
           style="fill:#e6e6e6;fill-opacity:1"
           id="g3261"
           transform="translate(724.0625,0)">
          <path
             sodipodi:type="arc"
             style="color:#000000;fill:#e6e6e6;fill-opacity:1;fill-rule:nonzero;stroke:none;stroke-width:0.75000000000000000;marker:none;visibility:visible;display:inline;overflow:visible;enable-background:accumulate"
             id="path3263"
             sodipodi:cx="277.14285"
             sodipodi:cy="212.36218"
             sodipodi:rx="77.14286"
             sodipodi:ry="77.14286"
             d="m 354.28571,212.36218 c 0,42.60483 -34.53803,77.14286 -77.14286,77.14286 -42.60482,0 -77.14286,-34.53803 -77.14286,-77.14286 0,-42.60482 34.53804,-77.14286 77.14286,-77.14286 42.60483,0 77.14286,34.53804 77.14286,77.14286 z" />
          <path
             style="color:#000000;fill:#e6e6e6;fill-opacity:1;fill-rule:nonzero;stroke:none;stroke-width:1.76986504000000000;marker:none;visibility:visible;display:inline;overflow:visible;enable-background:accumulate"
             d="m 277.12723,294.46229 c -93.9975,0 -171.33183,71.22361 -181.000002,162.65625 l 34.812502,0 c 9.48663,-72.29381 71.30145,-128.09375 146.1875,-128.09375 74.88605,0 136.72786,55.79994 146.21875,128.09375 l 34.8125,0 C 448.48676,365.6859 371.12473,294.46229 277.12723,294.46229 z"
             id="path3265" />
          <path
             style="color:#000000;fill:#e6e6e6;fill-opacity:1;fill-rule:nonzero;stroke:none;stroke-width:0.89422606999999998;marker:none;visibility:visible;display:inline;overflow:visible;enable-background:accumulate"
             d="m 277.14285,292.28125 c -59.20404,0 -107.1875,85.74932 -107.1875,191.5 0,3.96126 0.0548,7.87964 0.1875,11.78125 l 214,0 c 0.13275,-3.90161 0.1875,-7.81999 0.1875,-11.78125 0,-105.75068 -47.98346,-191.5 -107.1875,-191.5 z"
             id="path3267" />
          <g
             id="g3269"
             transform="translate(-9.3252468,0)"
             style="fill:#e6e6e6;fill-opacity:1;stroke:none">
            <rect
               y="485.53394"
               x="226.84958"
               height="242.00908"
               width="38.629131"
               id="rect3271"
               style="color:#000000;fill:#e6e6e6;fill-opacity:1;fill-rule:nonzero;stroke:none;stroke-width:0.56463998999999998;marker:none;visibility:visible;display:inline;overflow:visible;enable-background:accumulate" />
            <rect
               style="color:#000000;fill:#e6e6e6;fill-opacity:1;fill-rule:nonzero;stroke:none;stroke-width:0.56463998999999998;marker:none;visibility:visible;display:inline;overflow:visible;enable-background:accumulate"
               id="rect3273"
               width="38.629131"
               height="242.00908"
               x="307.45749"
               y="485.53394" />
          </g>
        </g>
        <g
           style="fill:#e6e6e6;fill-opacity:1"
           transform="translate(1086.0938,0)"
           id="g3275">
          <path
             d="m 354.28571,212.36218 c 0,42.60483 -34.53803,77.14286 -77.14286,77.14286 -42.60482,0 -77.14286,-34.53803 -77.14286,-77.14286 0,-42.60482 34.53804,-77.14286 77.14286,-77.14286 42.60483,0 77.14286,34.53804 77.14286,77.14286 z"
             sodipodi:ry="77.14286"
             sodipodi:rx="77.14286"
             sodipodi:cy="212.36218"
             sodipodi:cx="277.14285"
             id="path3277"
             style="color:#000000;fill:#e6e6e6;fill-opacity:1;fill-rule:nonzero;stroke:none;stroke-width:0.75000000000000000;marker:none;visibility:visible;display:inline;overflow:visible;enable-background:accumulate"
             sodipodi:type="arc" />
          <path
             id="path3279"
             d="m 277.12723,294.46229 c -93.9975,0 -171.33183,71.22361 -181.000002,162.65625 l 34.812502,0 c 9.48663,-72.29381 71.30145,-128.09375 146.1875,-128.09375 74.88605,0 136.72786,55.79994 146.21875,128.09375 l 34.8125,0 C 448.48676,365.6859 371.12473,294.46229 277.12723,294.46229 z"
             style="color:#000000;fill:#e6e6e6;fill-opacity:1;fill-rule:nonzero;stroke:none;stroke-width:1.76986504000000000;marker:none;visibility:visible;display:inline;overflow:visible;enable-background:accumulate" />
          <path
             id="path3281"
             d="m 277.14285,292.28125 c -59.20404,0 -107.1875,85.74932 -107.1875,191.5 0,3.96126 0.0548,7.87964 0.1875,11.78125 l 214,0 c 0.13275,-3.90161 0.1875,-7.81999 0.1875,-11.78125 0,-105.75068 -47.98346,-191.5 -107.1875,-191.5 z"
             style="color:#000000;fill:#e6e6e6;fill-opacity:1;fill-rule:nonzero;stroke:none;stroke-width:0.89422606999999998;marker:none;visibility:visible;display:inline;overflow:visible;enable-background:accumulate" />
          <g
             style="fill:#e6e6e6;fill-opacity:1;stroke:none"
             transform="translate(-9.3252468,0)"
             id="g3283">
            <rect
               style="color:#000000;fill:#e6e6e6;fill-opacity:1;fill-rule:nonzero;stroke:none;stroke-width:0.56463998999999998;marker:none;visibility:visible;display:inline;overflow:visible;enable-background:accumulate"
               id="rect3285"
               width="38.629131"
               height="242.00908"
               x="226.84958"
               y="485.53394" />
            <rect
               y="485.53394"
               x="307.45749"
               height="242.00908"
               width="38.629131"
               id="rect3287"
               style="color:#000000;fill:#e6e6e6;fill-opacity:1;fill-rule:nonzero;stroke:none;stroke-width:0.56463998999999998;marker:none;visibility:visible;display:inline;overflow:visible;enable-background:accumulate" />
          </g>
        </g>
      </g>
    </g>
    <g
       id="g3198">
      <g
         id="g3062">
        <path
           sodipodi:type="arc"
           style="color:#000000;fill:#d44117;fill-opacity:1;fill-rule:nonzero;stroke:none;stroke-width:0.75;marker:none;visibility:visible;display:inline;overflow:visible;enable-background:accumulate"
           id="path2901"
           sodipodi:cx="277.14285"
           sodipodi:cy="212.36218"
           sodipodi:rx="77.14286"
           sodipodi:ry="77.14286"
           d="m 354.28571,212.36218 c 0,42.60483 -34.53803,77.14286 -77.14286,77.14286 -42.60482,0 -77.14286,-34.53803 -77.14286,-77.14286 0,-42.60482 34.53804,-77.14286 77.14286,-77.14286 42.60483,0 77.14286,34.53804 77.14286,77.14286 z" />
        <path
           style="color:#000000;fill:#d44117;fill-opacity:1;fill-rule:nonzero;stroke:none;stroke-width:1.76986504;marker:none;visibility:visible;display:inline;overflow:visible;enable-background:accumulate"
           d="m 277.12723,294.46229 c -93.9975,0 -171.33183,71.22361 -181.000002,162.65625 l 34.812502,0 c 9.48663,-72.29381 71.30145,-128.09375 146.1875,-128.09375 74.88605,0 136.72786,55.79994 146.21875,128.09375 l 34.8125,0 C 448.48676,365.6859 371.12473,294.46229 277.12723,294.46229 z"
           id="path2903" />
        <path
           style="color:#000000;fill:#d44117;fill-opacity:1;fill-rule:nonzero;stroke:none;stroke-width:0.89422607;marker:none;visibility:visible;display:inline;overflow:visible;enable-background:accumulate"
           d="m 277.14285,292.28125 c -59.20404,0 -107.1875,85.74932 -107.1875,191.5 0,3.96126 0.0548,7.87964 0.1875,11.78125 l 214,0 c 0.13275,-3.90161 0.1875,-7.81999 0.1875,-11.78125 0,-105.75068 -47.98346,-191.5 -107.1875,-191.5 z"
           id="path2911" />
        <g
           id="g2922"
           transform="translate(-9.3252468,0)"
           style="fill:#d44117;fill-opacity:1;stroke:none">
          <rect
             y="485.53394"
             x="226.84958"
             height="242.00908"
             width="38.629131"
             id="rect2916"
             style="color:#000000;fill:#d44117;fill-opacity:1;fill-rule:nonzero;stroke:none;stroke-width:0.56463999;marker:none;visibility:visible;display:inline;overflow:visible;enable-background:accumulate" />
          <rect
             style="color:#000000;fill:#d44117;fill-opacity:1;fill-rule:nonzero;stroke:none;stroke-width:0.56463999;marker:none;visibility:visible;display:inline;overflow:visible;enable-background:accumulate"
             id="rect2920"
             width="38.629131"
             height="242.00908"
             x="307.45749"
             y="485.53394" />
        </g>
      </g>
      <g
         id="g3175">
        <g
           id="g3098"
           transform="translate(362.03125,0)"
           style="fill:#f2a438;fill-opacity:1">
          <path
             sodipodi:type="arc"
             style="color:#000000;fill:#f2a438;fill-opacity:1;fill-rule:nonzero;stroke:none;stroke-width:0.75;marker:none;visibility:visible;display:inline;overflow:visible;enable-background:accumulate"
             id="path3100"
             sodipodi:cx="277.14285"
             sodipodi:cy="212.36218"
             sodipodi:rx="77.14286"
             sodipodi:ry="77.14286"
             d="m 354.28571,212.36218 c 0,42.60483 -34.53803,77.14286 -77.14286,77.14286 -42.60482,0 -77.14286,-34.53803 -77.14286,-77.14286 0,-42.60482 34.53804,-77.14286 77.14286,-77.14286 42.60483,0 77.14286,34.53804 77.14286,77.14286 z" />
          <path
             style="color:#000000;fill:#f2a438;fill-opacity:1;fill-rule:nonzero;stroke:none;stroke-width:1.76986504;marker:none;visibility:visible;display:inline;overflow:visible;enable-background:accumulate"
             d="m 277.12723,294.46229 c -93.9975,0 -171.33183,71.22361 -181.000002,162.65625 l 34.812502,0 c 9.48663,-72.29381 71.30145,-128.09375 146.1875,-128.09375 74.88605,0 136.72786,55.79994 146.21875,128.09375 l 34.8125,0 C 448.48676,365.6859 371.12473,294.46229 277.12723,294.46229 z"
             id="path3102" />
          <path
             style="color:#000000;fill:#f2a438;fill-opacity:1;fill-rule:nonzero;stroke:none;stroke-width:0.89422607;marker:none;visibility:visible;display:inline;overflow:visible;enable-background:accumulate"
             d="m 277.14285,292.28125 c -59.20404,0 -107.1875,85.74932 -107.1875,191.5 0,3.96126 0.0548,7.87964 0.1875,11.78125 l 214,0 c 0.13275,-3.90161 0.1875,-7.81999 0.1875,-11.78125 0,-105.75068 -47.98346,-191.5 -107.1875,-191.5 z"
             id="path3104" />
          <g
             id="g3106"
             transform="translate(-9.3252468,0)"
             style="fill:#f2a438;fill-opacity:1;stroke:none">
            <rect
               y="485.53394"
               x="226.84958"
               height="242.00908"
               width="38.629131"
               id="rect3108"
               style="color:#000000;fill:#f2a438;fill-opacity:1;fill-rule:nonzero;stroke:none;stroke-width:0.56463999;marker:none;visibility:visible;display:inline;overflow:visible;enable-background:accumulate" />
            <rect
               style="color:#000000;fill:#f2a438;fill-opacity:1;fill-rule:nonzero;stroke:none;stroke-width:0.56463999;marker:none;visibility:visible;display:inline;overflow:visible;enable-background:accumulate"
               id="rect3110"
               width="38.629131"
               height="242.00908"
               x="307.45749"
               y="485.53394" />
          </g>
        </g>
        <g
           transform="translate(724.0625,0)"
           id="g3112"
           style="fill:#6bb427;fill-opacity:1">
          <path
             d="m 354.28571,212.36218 c 0,42.60483 -34.53803,77.14286 -77.14286,77.14286 -42.60482,0 -77.14286,-34.53803 -77.14286,-77.14286 0,-42.60482 34.53804,-77.14286 77.14286,-77.14286 42.60483,0 77.14286,34.53804 77.14286,77.14286 z"
             sodipodi:ry="77.14286"
             sodipodi:rx="77.14286"
             sodipodi:cy="212.36218"
             sodipodi:cx="277.14285"
             id="path3114"
             style="color:#000000;fill:#6bb427;fill-opacity:1;fill-rule:nonzero;stroke:none;stroke-width:0.75;marker:none;visibility:visible;display:inline;overflow:visible;enable-background:accumulate"
             sodipodi:type="arc" />
          <path
             id="path3116"
             d="m 277.12723,294.46229 c -93.9975,0 -171.33183,71.22361 -181.000002,162.65625 l 34.812502,0 c 9.48663,-72.29381 71.30145,-128.09375 146.1875,-128.09375 74.88605,0 136.72786,55.79994 146.21875,128.09375 l 34.8125,0 C 448.48676,365.6859 371.12473,294.46229 277.12723,294.46229 z"
             style="color:#000000;fill:#6bb427;fill-opacity:1;fill-rule:nonzero;stroke:none;stroke-width:1.76986504;marker:none;visibility:visible;display:inline;overflow:visible;enable-background:accumulate" />
          <path
             id="path3118"
             d="m 277.14285,292.28125 c -59.20404,0 -107.1875,85.74932 -107.1875,191.5 0,3.96126 0.0548,7.87964 0.1875,11.78125 l 214,0 c 0.13275,-3.90161 0.1875,-7.81999 0.1875,-11.78125 0,-105.75068 -47.98346,-191.5 -107.1875,-191.5 z"
             style="color:#000000;fill:#6bb427;fill-opacity:1;fill-rule:nonzero;stroke:none;stroke-width:0.89422607;marker:none;visibility:visible;display:inline;overflow:visible;enable-background:accumulate" />
          <g
             style="fill:#6bb427;fill-opacity:1;stroke:none"
             transform="translate(-9.3252468,0)"
             id="g3120">
            <rect
               style="color:#000000;fill:#6bb427;fill-opacity:1;fill-rule:nonzero;stroke:none;stroke-width:0.56463999;marker:none;visibility:visible;display:inline;overflow:visible;enable-background:accumulate"
               id="rect3122"
               width="38.629131"
               height="242.00908"
               x="226.84958"
               y="485.53394" />
            <rect
               y="485.53394"
               x="307.45749"
               height="242.00908"
               width="38.629131"
               id="rect3124"
               style="color:#000000;fill:#6bb427;fill-opacity:1;fill-rule:nonzero;stroke:none;stroke-width:0.56463999;marker:none;visibility:visible;display:inline;overflow:visible;enable-background:accumulate" />
          </g>
        </g>
        <g
           id="g3126"
           transform="translate(1086.0938,0)"
           style="fill:#5775b1;fill-opacity:1">
          <path
             sodipodi:type="arc"
             style="color:#000000;fill:#5775b1;fill-opacity:1;fill-rule:nonzero;stroke:none;stroke-width:0.75;marker:none;visibility:visible;display:inline;overflow:visible;enable-background:accumulate"
             id="path3128"
             sodipodi:cx="277.14285"
             sodipodi:cy="212.36218"
             sodipodi:rx="77.14286"
             sodipodi:ry="77.14286"
             d="m 354.28571,212.36218 c 0,42.60483 -34.53803,77.14286 -77.14286,77.14286 -42.60482,0 -77.14286,-34.53803 -77.14286,-77.14286 0,-42.60482 34.53804,-77.14286 77.14286,-77.14286 42.60483,0 77.14286,34.53804 77.14286,77.14286 z" />
          <path
             style="color:#000000;fill:#5775b1;fill-opacity:1;fill-rule:nonzero;stroke:none;stroke-width:1.76986504;marker:none;visibility:visible;display:inline;overflow:visible;enable-background:accumulate"
             d="m 277.12723,294.46229 c -93.9975,0 -171.33183,71.22361 -181.000002,162.65625 l 34.812502,0 c 9.48663,-72.29381 71.30145,-128.09375 146.1875,-128.09375 74.88605,0 136.72786,55.79994 146.21875,128.09375 l 34.8125,0 C 448.48676,365.6859 371.12473,294.46229 277.12723,294.46229 z"
             id="path3130" />
          <path
             style="color:#000000;fill:#5775b1;fill-opacity:1;fill-rule:nonzero;stroke:none;stroke-width:0.89422607;marker:none;visibility:visible;display:inline;overflow:visible;enable-background:accumulate"
             d="m 277.14285,292.28125 c -59.20404,0 -107.1875,85.74932 -107.1875,191.5 0,3.96126 0.0548,7.87964 0.1875,11.78125 l 214,0 c 0.13275,-3.90161 0.1875,-7.81999 0.1875,-11.78125 0,-105.75068 -47.98346,-191.5 -107.1875,-191.5 z"
             id="path3132" />
          <g
             id="g3134"
             transform="translate(-9.3252468,0)"
             style="fill:#5775b1;fill-opacity:1;stroke:none">
            <rect
               y="485.53394"
               x="226.84958"
               height="242.00908"
               width="38.629131"
               id="rect3136"
               style="color:#000000;fill:#5775b1;fill-opacity:1;fill-rule:nonzero;stroke:none;stroke-width:0.56463999;marker:none;visibility:visible;display:inline;overflow:visible;enable-background:accumulate" />
            <rect
               style="color:#000000;fill:#5775b1;fill-opacity:1;fill-rule:nonzero;stroke:none;stroke-width:0.56463999;marker:none;visibility:visible;display:inline;overflow:visible;enable-background:accumulate"
               id="rect3138"
               width="38.629131"
               height="242.00908"
               x="307.45749"
               y="485.53394" />
          </g>
        </g>
      </g>
    </g>
  </g>
</svg>
